<svg version="1.1" xmlns="http://www.w3.org/2000/svg" viewBox="0 0 1975.5768320554926 1225.147228785172" width="5926.730496166478" height="3675.441686355516">
  <!-- svg-source:excalidraw -->
  
  <defs>
    <style class="style-fonts">
      @font-face {
        font-family: "Virgil";
        src: url("https://excalidraw.com/Virgil.woff2");
      }
      @font-face {
        font-family: "Cascadia";
        src: url("https://excalidraw.com/Cascadia.woff2");
      }
      @font-face {
        font-family: "Assistant";
        src: url("https://excalidraw.com/Assistant-Regular.woff2");
      }
    </style>
    
  </defs>
  <rect x="0" y="0" width="1975.5768320554926" height="1225.147228785172" fill="#ffffff"></rect><g stroke-linecap="round" transform="translate(10 425.74452381219453) rotate(0 167.88207398008672 56.1511516003884)"><path d="M6.82 7.25 C6.82 7.25, 6.82 7.25, 6.82 7.25 M6.82 7.25 C6.82 7.25, 6.82 7.25, 6.82 7.25 M1.05 26.08 C6.62 19.67, 12.19 13.26, 22.7 1.18 M1.05 26.08 C5.64 20.8, 10.22 15.53, 22.7 1.18 M0.52 38.88 C12.39 25.22, 24.26 11.57, 33.98 0.39 M0.52 38.88 C9.77 28.25, 19.01 17.61, 33.98 0.39 M0.66 50.92 C17.7 31.31, 34.75 11.7, 44.61 0.36 M0.66 50.92 C15.43 33.92, 30.21 16.93, 44.61 0.36 M0.79 62.96 C20.33 40.48, 39.87 18, 55.24 0.32 M0.79 62.96 C15.34 46.22, 29.9 29.48, 55.24 0.32 M0.92 75 C19.14 54.04, 37.37 33.08, 65.87 0.29 M0.92 75 C22.97 49.64, 45.02 24.27, 65.87 0.29 M1.06 87.04 C23.08 61.71, 45.11 36.37, 76.5 0.25 M1.06 87.04 C20 65.25, 38.94 43.46, 76.5 0.25 M2.5 97.57 C25.69 70.9, 48.87 44.23, 87.13 0.22 M2.5 97.57 C24.76 71.97, 47.02 46.37, 87.13 0.22 M6.57 105.09 C39.86 66.79, 73.14 28.5, 97.76 0.18 M6.57 105.09 C27.86 80.6, 49.15 56.11, 97.76 0.18 M13.26 109.58 C49.1 68.35, 84.94 27.12, 108.39 0.15 M13.26 109.58 C46.77 71.04, 80.27 32.5, 108.39 0.15 M21.93 111.81 C51.98 77.24, 82.03 42.67, 119.02 0.11 M21.93 111.81 C58.32 69.94, 94.72 28.07, 119.02 0.11 M31.9 112.53 C67.63 71.43, 103.36 30.33, 129 0.83 M31.9 112.53 C66.6 72.61, 101.3 32.7, 129 0.83 M42.53 112.5 C69.43 81.55, 96.33 50.61, 139.63 0.8 M42.53 112.5 C70.72 80.06, 98.92 47.63, 139.63 0.8 M53.16 112.46 C82 79.29, 110.84 46.11, 150.26 0.76 M53.16 112.46 C75.83 86.38, 98.5 60.3, 150.26 0.76 M63.79 112.43 C96.77 74.49, 129.74 36.56, 160.89 0.73 M63.79 112.43 C97.75 73.36, 131.72 34.29, 160.89 0.73 M74.42 112.39 C111.65 69.56, 148.88 26.73, 171.52 0.7 M74.42 112.39 C97.74 85.57, 121.06 58.74, 171.52 0.7 M85.05 112.36 C122.88 68.84, 160.71 25.32, 182.15 0.66 M85.05 112.36 C121.72 70.18, 158.38 28, 182.15 0.66 M95.68 112.32 C126.49 76.88, 157.3 41.44, 192.78 0.63 M95.68 112.32 C119.15 85.32, 142.62 58.32, 192.78 0.63 M106.31 112.29 C129.57 85.53, 152.83 58.77, 203.41 0.59 M106.31 112.29 C140.59 72.86, 174.87 33.43, 203.41 0.59 M116.94 112.25 C151.78 72.17, 186.62 32.09, 214.04 0.56 M116.94 112.25 C137.06 89.11, 157.19 65.96, 214.04 0.56 M127.57 112.22 C158.88 76.2, 190.2 40.18, 224.67 0.52 M127.57 112.22 C157.66 77.61, 187.75 43, 224.67 0.52 M138.2 112.19 C161.37 85.53, 184.54 58.88, 235.3 0.49 M138.2 112.19 C168.34 77.52, 198.48 42.85, 235.3 0.49 M148.83 112.15 C186.85 68.41, 224.87 24.67, 245.93 0.45 M148.83 112.15 C171.81 85.71, 194.8 59.27, 245.93 0.45 M159.46 112.12 C184.47 83.34, 209.48 54.57, 256.56 0.42 M159.46 112.12 C181.75 86.48, 204.04 60.84, 256.56 0.42 M170.09 112.08 C191.49 87.46, 212.89 62.84, 267.19 0.39 M170.09 112.08 C206.67 70, 243.26 27.91, 267.19 0.39 M180.72 112.05 C218.29 68.83, 255.86 25.61, 277.82 0.35 M180.72 112.05 C204.78 84.37, 228.84 56.69, 277.82 0.35 M191.35 112.01 C220.76 78.19, 250.16 44.36, 288.45 0.32 M191.35 112.01 C223.2 75.38, 255.04 38.74, 288.45 0.32 M201.98 111.98 C237.73 70.85, 273.49 29.72, 299.08 0.28 M201.98 111.98 C236.25 72.56, 270.52 33.13, 299.08 0.28 M211.96 112.7 C246.47 72.99, 280.99 33.29, 309.71 0.25 M211.96 112.7 C245.48 74.13, 279.01 35.56, 309.71 0.25 M222.59 112.66 C243.15 89.01, 263.71 65.35, 319.03 1.72 M222.59 112.66 C255.13 75.23, 287.67 37.8, 319.03 1.72 M233.22 112.63 C252.37 90.59, 271.53 68.56, 326.38 5.46 M233.22 112.63 C254.55 88.09, 275.89 63.54, 326.38 5.46 M243.85 112.6 C270.59 81.83, 297.33 51.07, 331.76 11.46 M243.85 112.6 C270.07 82.42, 296.3 52.25, 331.76 11.46 M254.48 112.56 C279.92 83.3, 305.36 54.03, 335.17 19.73 M254.48 112.56 C274.5 89.53, 294.52 66.5, 335.17 19.73 M265.11 112.53 C285.9 88.61, 306.69 64.68, 335.96 31.02 M265.11 112.53 C289.03 85.01, 312.94 57.49, 335.96 31.02 M275.74 112.49 C291.26 94.64, 306.78 76.79, 336.09 43.06 M275.74 112.49 C288.83 97.43, 301.92 82.37, 336.09 43.06 M286.37 112.46 C296.53 100.76, 306.7 89.06, 336.23 55.1 M286.37 112.46 C299.41 97.45, 312.46 82.44, 336.23 55.1 M297 112.42 C305.92 102.16, 314.84 91.9, 336.36 67.14 M297 112.42 C305.14 103.06, 313.28 93.69, 336.36 67.14 M307.63 112.39 C317.11 101.48, 326.6 90.56, 336.49 79.18 M307.63 112.39 C315.76 103.03, 323.89 93.68, 336.49 79.18 M319.57 110.84 C324.69 104.95, 329.82 99.06, 334.66 93.49 M319.57 110.84 C323.25 106.61, 326.93 102.38, 334.66 93.49" stroke="#a5d8ff" stroke-width="1" fill="none"></path><path d="M28.08 0 C139.47 0, 250.87 0, 307.69 0 M28.08 0 C139.74 0, 251.41 0, 307.69 0 M307.69 0 C326.41 0, 335.76 9.36, 335.76 28.08 M307.69 0 C326.41 0, 335.76 9.36, 335.76 28.08 M335.76 28.08 C335.76 41.87, 335.76 55.67, 335.76 84.23 M335.76 28.08 C335.76 41.66, 335.76 55.24, 335.76 84.23 M335.76 84.23 C335.76 102.94, 326.41 112.3, 307.69 112.3 M335.76 84.23 C335.76 102.94, 326.41 112.3, 307.69 112.3 M307.69 112.3 C245.89 112.3, 184.1 112.3, 28.08 112.3 M307.69 112.3 C251.03 112.3, 194.37 112.3, 28.08 112.3 M28.08 112.3 C9.36 112.3, 0 102.94, 0 84.23 M28.08 112.3 C9.36 112.3, 0 102.94, 0 84.23 M0 84.23 C0 69.01, 0 53.79, 0 28.08 M0 84.23 C0 71.71, 0 59.19, 0 28.08 M0 28.08 C0 9.36, 9.36 0, 28.08 0 M0 28.08 C0 9.36, 9.36 0, 28.08 0" stroke="#1971c2" stroke-width="2" fill="none"></path></g><g transform="translate(38.71540222715703 453.31695913783915) rotate(0 139.1666717529297 28.578716274743783)"><text x="139.1666717529297" y="0" font-family="Cascadia, Segoe UI Emoji" font-size="47.631193791239475px" fill="#1971c2" text-anchor="middle" style="white-space: pre;" direction="ltr" dominant-baseline="text-before-edge">Host is IP</text></g><g stroke-linecap="round"><g transform="translate(164.0904792065994 233.39696194702265) rotate(0 0.11741711229842622 90.58983199915019)"><path d="M0 0 C0.04 30.2, 0.2 150.98, 0.23 181.18 M0 0 C0.04 30.2, 0.2 150.98, 0.23 181.18" stroke="#1e1e1e" stroke-width="2" fill="none"></path></g><g transform="translate(164.0904792065994 233.39696194702265) rotate(0 0.11741711229842622 90.58983199915019)"><path d="M-10.06 153 C-7.99 158.67, -5.92 164.33, 0.23 181.18 M-10.06 153 C-6.78 161.98, -3.5 170.96, 0.23 181.18" stroke="#1e1e1e" stroke-width="2" fill="none"></path></g><g transform="translate(164.0904792065994 233.39696194702265) rotate(0 0.11741711229842622 90.58983199915019)"><path d="M10.46 152.98 C8.4 158.64, 6.35 164.31, 0.23 181.18 M10.46 152.98 C7.2 161.96, 3.94 170.95, 0.23 181.18" stroke="#1e1e1e" stroke-width="2" fill="none"></path></g></g><mask></mask><g stroke-linecap="round" transform="translate(491.20653878450685 431.56221944517165) rotate(0 167.88207398008672 62.5)"><path d="M31.25 0 C97.69 0, 164.14 0, 304.51 0 M31.25 0 C132.49 0, 233.72 0, 304.51 0 M304.51 0 C325.35 0, 335.76 10.42, 335.76 31.25 M304.51 0 C325.35 0, 335.76 10.42, 335.76 31.25 M335.76 31.25 C335.76 43.79, 335.76 56.33, 335.76 93.75 M335.76 31.25 C335.76 49.99, 335.76 68.74, 335.76 93.75 M335.76 93.75 C335.76 114.58, 325.35 125, 304.51 125 M335.76 93.75 C335.76 114.58, 325.35 125, 304.51 125 M304.51 125 C207.49 125, 110.47 125, 31.25 125 M304.51 125 C195.8 125, 87.09 125, 31.25 125 M31.25 125 C10.42 125, 0 114.58, 0 93.75 M31.25 125 C10.42 125, 0 114.58, 0 93.75 M0 93.75 C0 73.14, 0 52.52, 0 31.25 M0 93.75 C0 78.48, 0 63.21, 0 31.25 M0 31.25 C0 10.42, 10.42 0, 31.25 0 M0 31.25 C0 10.42, 10.42 0, 31.25 0" stroke="#1e1e1e" stroke-width="2" fill="none"></path></g><g transform="translate(519.9219410116639 436.9047868956841) rotate(0 139.1666717529297 57.15743254948757)"><text x="139.1666717529297" y="0" font-family="Cascadia, Segoe UI Emoji" font-size="47.631193791239475px" fill="#1e1e1e" text-anchor="middle" style="white-space: pre;" direction="ltr" dominant-baseline="text-before-edge">Establish </text><text x="139.1666717529297" y="57.15743254948737" font-family="Cascadia, Segoe UI Emoji" font-size="47.631193791239475px" fill="#1e1e1e" text-anchor="middle" style="white-space: pre;" direction="ltr" dominant-baseline="text-before-edge">TCP</text></g><g stroke-linecap="round" transform="translate(55.71046568766178 679.2298335346131) rotate(0 125.49600579699472 91.58847816486741)"><path d="M32 0 C84.8 0, 137.6 0, 218.99 0 M32 0 C80.54 0, 129.08 0, 218.99 0 M218.99 0 C240.33 0, 250.99 10.67, 250.99 32 M218.99 0 C240.33 0, 250.99 10.67, 250.99 32 M250.99 32 C250.99 71.54, 250.99 111.08, 250.99 151.18 M250.99 32 C250.99 66.57, 250.99 101.15, 250.99 151.18 M250.99 151.18 C250.99 172.51, 240.33 183.18, 218.99 183.18 M250.99 151.18 C250.99 172.51, 240.33 183.18, 218.99 183.18 M218.99 183.18 C170.08 183.18, 121.17 183.18, 32 183.18 M218.99 183.18 C148.82 183.18, 78.65 183.18, 32 183.18 M32 183.18 C10.67 183.18, 0 172.51, 0 151.18 M32 183.18 C10.67 183.18, 0 172.51, 0 151.18 M0 151.18 C0 112.63, 0 74.08, 0 32 M0 151.18 C0 116.57, 0 81.95, 0 32 M0 32 C0 10.67, 10.67 0, 32 0 M0 32 C0 10.67, 10.67 0, 32 0" stroke="#1e1e1e" stroke-width="2" fill="none"></path></g><g transform="translate(111.62313560818438 713.6608791499966) rotate(0 69.58333587646484 57.15743254948757)"><text x="69.58333587646484" y="0" font-family="Cascadia, Segoe UI Emoji" font-size="47.631193791239475px" fill="#1e1e1e" text-anchor="middle" style="white-space: pre;" direction="ltr" dominant-baseline="text-before-edge">Query</text><text x="69.58333587646484" y="57.15743254948737" font-family="Cascadia, Segoe UI Emoji" font-size="47.631193791239475px" fill="#1e1e1e" text-anchor="middle" style="white-space: pre;" direction="ltr" dominant-baseline="text-before-edge">DNS</text></g><g mask="url(#mask-vVhB6MxQD6R65x56thZCc)" stroke-linecap="round"><g transform="translate(171.13984432826692 550.8769236321314) rotate(0 0.6819846311263973 62.332453210430685)"><path d="M0 0 C0.23 20.78, 1.14 103.89, 1.36 124.66 M0 0 C0.23 20.78, 1.14 103.89, 1.36 124.66" stroke="#1e1e1e" stroke-width="2" fill="none"></path></g><g transform="translate(171.13984432826692 550.8769236321314) rotate(0 0.6819846311263973 62.332453210430685)"><path d="M-9.2 96.59 C-6.28 104.34, -3.36 112.1, 1.36 124.66 M-9.2 96.59 C-6 105.1, -2.79 113.62, 1.36 124.66" stroke="#1e1e1e" stroke-width="2" fill="none"></path></g><g transform="translate(171.13984432826692 550.8769236321314) rotate(0 0.6819846311263973 62.332453210430685)"><path d="M11.32 96.36 C8.57 104.18, 5.82 112, 1.36 124.66 M11.32 96.36 C8.3 104.95, 5.28 113.53, 1.36 124.66" stroke="#1e1e1e" stroke-width="2" fill="none"></path></g></g><mask id="mask-vVhB6MxQD6R65x56thZCc"><rect x="0" y="0" fill="#fff" width="272.5038135905197" height="775.5418300529927"></rect><rect x="157.77182876865845" y="603.6093768425635" fill="#000" width="28.100000381469727" height="19.2" opacity="1"></rect></mask><g transform="translate(157.77182876865845 603.6093768425635) rotate(0 14.050000190734863 9.599999999998545)"><text x="14.050000190734863" y="0" font-family="Cascadia, Segoe UI Emoji" font-size="16px" fill="#1e1e1e" text-anchor="middle" style="white-space: pre;" direction="ltr" dominant-baseline="text-before-edge">Yes</text></g><g mask="url(#mask-5n7O91sZKN8KjpK9AevW_)" stroke-linecap="round"><g transform="translate(358.2306386022974 487.1591656935998) rotate(0 58.17695632973482 1.3350846020657627)"><path d="M0 0 C19.39 0.45, 96.96 2.23, 116.35 2.67 M0 0 C19.39 0.45, 96.96 2.23, 116.35 2.67" stroke="#1e1e1e" stroke-width="2" fill="none"></path></g><g transform="translate(358.2306386022974 487.1591656935998) rotate(0 58.17695632973482 1.3350846020657627)"><path d="M87.94 12.28 C97.2 9.15, 106.46 6.02, 116.35 2.67 M87.94 12.28 C95.17 9.84, 102.39 7.39, 116.35 2.67" stroke="#1e1e1e" stroke-width="2" fill="none"></path></g><g transform="translate(358.2306386022974 487.1591656935998) rotate(0 58.17695632973482 1.3350846020657627)"><path d="M88.41 -8.23 C97.51 -4.68, 106.62 -1.13, 116.35 2.67 M88.41 -8.23 C95.52 -5.46, 102.63 -2.69, 116.35 2.67" stroke="#1e1e1e" stroke-width="2" fill="none"></path></g></g><mask id="mask-5n7O91sZKN8KjpK9AevW_"><rect x="0" y="0" fill="#fff" width="574.584551261767" height="589.8293348977313"></rect><rect x="407.0409281382017" y="478.89425029566337" fill="#000" width="18.733333587646484" height="19.2" opacity="1"></rect></mask><g transform="translate(407.0409281382017 478.89425029566337) rotate(0 9.366666793830518 9.600000000002183)"><text x="9.366666793823242" y="0" font-family="Cascadia, Segoe UI Emoji" font-size="16px" fill="#1e1e1e" text-anchor="middle" style="white-space: pre;" direction="ltr" dominant-baseline="text-before-edge">No</text></g><g stroke-linecap="round"><g transform="translate(321.1140076563752 738.3687772159537) rotate(0 76.73527180269593 -118.9310075219546)"><path d="M0 0 C25.58 -39.64, 127.89 -198.22, 153.47 -237.86 M0 0 C25.58 -39.64, 127.89 -198.22, 153.47 -237.86" stroke="#1e1e1e" stroke-width="2" fill="none"></path></g><g transform="translate(321.1140076563752 738.3687772159537) rotate(0 76.73527180269593 -118.9310075219546)"><path d="M146.81 -208.61 C148.82 -217.43, 150.82 -226.24, 153.47 -237.86 M146.81 -208.61 C149.2 -219.13, 151.6 -229.65, 153.47 -237.86" stroke="#1e1e1e" stroke-width="2" fill="none"></path></g><g transform="translate(321.1140076563752 738.3687772159537) rotate(0 76.73527180269593 -118.9310075219546)"><path d="M129.57 -219.74 C136.77 -225.2, 143.98 -230.66, 153.47 -237.86 M129.57 -219.74 C138.16 -226.25, 146.76 -232.77, 153.47 -237.86" stroke="#1e1e1e" stroke-width="2" fill="none"></path></g></g><mask></mask><g stroke-linecap="round" transform="translate(913.4050218632328 423.55117229329335) rotate(0 167.88207398008672 62.5)"><path d="M31.25 0 C110.23 0, 189.21 0, 304.51 0 M31.25 0 C103.75 0, 176.26 0, 304.51 0 M304.51 0 C325.35 0, 335.76 10.42, 335.76 31.25 M304.51 0 C325.35 0, 335.76 10.42, 335.76 31.25 M335.76 31.25 C335.76 43.86, 335.76 56.47, 335.76 93.75 M335.76 31.25 C335.76 51.87, 335.76 72.49, 335.76 93.75 M335.76 93.75 C335.76 114.58, 325.35 125, 304.51 125 M335.76 93.75 C335.76 114.58, 325.35 125, 304.51 125 M304.51 125 C226.57 125, 148.63 125, 31.25 125 M304.51 125 C222.54 125, 140.57 125, 31.25 125 M31.25 125 C10.42 125, 0 114.58, 0 93.75 M31.25 125 C10.42 125, 0 114.58, 0 93.75 M0 93.75 C0 77.39, 0 61.03, 0 31.25 M0 93.75 C0 77.8, 0 61.85, 0 31.25 M0 31.25 C0 10.42, 10.42 0, 31.25 0 M0 31.25 C0 10.42, 10.42 0, 31.25 0" stroke="#1e1e1e" stroke-width="2" fill="none"></path></g><g transform="translate(1011.7037599668547 428.8937397438058) rotate(0 69.58333587646484 57.15743254948757)"><text x="69.58333587646484" y="0" font-family="Cascadia, Segoe UI Emoji" font-size="47.631193791239475px" fill="#1e1e1e" text-anchor="middle" style="white-space: pre;" direction="ltr" dominant-baseline="text-before-edge">Build</text><text x="69.58333587646484" y="57.15743254948737" font-family="Cascadia, Segoe UI Emoji" font-size="47.631193791239475px" fill="#1e1e1e" text-anchor="middle" style="white-space: pre;" direction="ltr" dominant-baseline="text-before-edge">HTTP</text></g><g stroke-linecap="round" transform="translate(878.4988480653847 675.9054360300725) rotate(0 231.04562656665803 62.5)"><path d="M7.66 7.99 C7.66 7.99, 7.66 7.99, 7.66 7.99 M7.66 7.99 C7.66 7.99, 7.66 7.99, 7.66 7.99 M1.23 27.57 C6.28 21.77, 11.32 15.97, 24.2 1.16 M1.23 27.57 C8.46 19.26, 15.69 10.95, 24.2 1.16 M1.37 39.61 C9.97 29.71, 18.58 19.81, 35.48 0.37 M1.37 39.61 C13.97 25.11, 26.58 10.61, 35.48 0.37 M1.5 51.66 C16.85 34, 32.2 16.34, 46.11 0.33 M1.5 51.66 C14.12 37.14, 26.74 22.62, 46.11 0.33 M0.98 64.45 C12.99 50.64, 24.99 36.82, 56.74 0.3 M0.98 64.45 C22.39 39.82, 43.8 15.19, 56.74 0.3 M1.11 76.49 C19.91 54.86, 38.72 33.23, 67.37 0.27 M1.11 76.49 C25.95 47.91, 50.8 19.33, 67.37 0.27 M1.24 88.53 C31.82 53.35, 62.41 18.17, 78 0.23 M1.24 88.53 C20.19 66.74, 39.13 44.95, 78 0.23 M0.72 101.33 C24.83 73.59, 48.95 45.85, 88.63 0.2 M0.72 101.33 C26.64 71.51, 52.56 41.69, 88.63 0.2 M3.48 110.35 C25.2 85.37, 46.91 60.38, 99.26 0.16 M3.48 110.35 C25.95 84.5, 48.42 58.65, 99.26 0.16 M8.2 117.11 C29.12 93.04, 50.05 68.98, 109.89 0.13 M8.2 117.11 C30.27 91.72, 52.34 66.33, 109.89 0.13 M14.9 121.6 C49.79 81.47, 84.67 41.33, 120.52 0.09 M14.9 121.6 C51.28 79.75, 87.66 37.9, 120.52 0.09 M22.9 124.59 C57.86 84.38, 92.81 44.17, 131.15 0.06 M22.9 124.59 C53.87 88.96, 84.84 53.34, 131.15 0.06 M32.88 125.31 C59.42 94.77, 85.97 64.23, 141.78 0.02 M32.88 125.31 C75.75 75.99, 118.61 26.68, 141.78 0.02 M43.51 125.27 C78.93 84.52, 114.35 43.78, 152.41 -0.01 M43.51 125.27 C78.03 85.56, 112.55 45.85, 152.41 -0.01 M54.14 125.24 C87.5 86.85, 120.87 48.47, 163.04 -0.04 M54.14 125.24 C88.96 85.18, 123.78 45.12, 163.04 -0.04 M64.77 125.2 C93.84 91.75, 122.92 58.31, 173.67 -0.08 M64.77 125.2 C96.9 88.24, 129.02 51.29, 173.67 -0.08 M75.4 125.17 C114.61 80.06, 153.82 34.95, 183.65 0.64 M75.4 125.17 C105.79 90.2, 136.18 55.24, 183.65 0.64 M86.03 125.13 C113.84 93.14, 141.66 61.14, 194.28 0.61 M86.03 125.13 C115.88 90.79, 145.73 56.46, 194.28 0.61 M96.66 125.1 C124.81 92.72, 152.95 60.34, 204.91 0.57 M96.66 125.1 C135.08 80.9, 173.5 36.7, 204.91 0.57 M107.29 125.06 C146.12 80.4, 184.95 35.73, 215.54 0.54 M107.29 125.06 C138.15 89.56, 169.02 54.05, 215.54 0.54 M117.92 125.03 C156.14 81.06, 194.37 37.08, 226.17 0.5 M117.92 125.03 C143.98 95.05, 170.04 65.07, 226.17 0.5 M128.55 125 C159.99 88.82, 191.44 52.65, 236.8 0.47 M128.55 125 C152.29 97.68, 176.04 70.37, 236.8 0.47 M139.18 124.96 C182.44 75.2, 225.7 25.43, 247.43 0.43 M139.18 124.96 C177.84 80.48, 216.51 36.01, 247.43 0.43 M149.81 124.93 C185.01 84.43, 220.22 43.93, 258.06 0.4 M149.81 124.93 C187.15 81.97, 224.49 39.02, 258.06 0.4 M159.78 125.65 C188.35 92.79, 216.91 59.92, 268.69 0.37 M159.78 125.65 C197.17 82.63, 234.57 39.62, 268.69 0.37 M170.41 125.61 C212.94 76.69, 255.47 27.76, 279.32 0.33 M170.41 125.61 C213.84 75.66, 257.26 25.71, 279.32 0.33 M181.04 125.58 C203.76 99.44, 226.48 73.31, 289.95 0.3 M181.04 125.58 C220.11 80.63, 259.18 35.69, 289.95 0.3 M191.67 125.54 C231.82 79.36, 271.97 33.17, 300.58 0.26 M191.67 125.54 C223.03 89.48, 254.38 53.41, 300.58 0.26 M202.3 125.51 C225.25 99.12, 248.19 72.72, 311.21 0.23 M202.3 125.51 C244.04 77.5, 285.77 29.49, 311.21 0.23 M212.93 125.47 C256.13 75.78, 299.33 26.08, 321.84 0.19 M212.93 125.47 C255.39 76.63, 297.85 27.79, 321.84 0.19 M223.56 125.44 C250.28 94.7, 277 63.97, 332.47 0.16 M223.56 125.44 C258.07 85.75, 292.58 46.05, 332.47 0.16 M234.19 125.41 C274.07 79.53, 313.96 33.65, 343.1 0.12 M234.19 125.41 C261.69 93.78, 289.18 62.15, 343.1 0.12 M244.82 125.37 C287.75 76, 330.67 26.62, 353.73 0.09 M244.82 125.37 C275.33 90.28, 305.83 55.19, 353.73 0.09 M255.45 125.34 C279.81 97.32, 304.16 69.31, 364.36 0.05 M255.45 125.34 C287.45 88.53, 319.44 51.73, 364.36 0.05 M266.08 125.3 C303.46 82.3, 340.84 39.3, 374.99 0.02 M266.08 125.3 C300.25 86, 334.41 46.7, 374.99 0.02 M276.71 125.27 C306.11 91.45, 335.51 57.63, 385.62 -0.01 M276.71 125.27 C309.62 87.41, 342.53 49.56, 385.62 -0.01 M287.34 125.23 C318.23 89.71, 349.11 54.18, 396.25 -0.05 M287.34 125.23 C317.7 90.31, 348.06 55.39, 396.25 -0.05 M297.97 125.2 C326.4 92.5, 354.82 59.81, 406.88 -0.08 M297.97 125.2 C334.61 83.06, 371.24 40.92, 406.88 -0.08 M308.6 125.16 C331.41 98.93, 354.22 72.69, 416.85 0.64 M308.6 125.16 C347.2 80.76, 385.8 36.36, 416.85 0.64 M319.23 125.13 C352.48 86.89, 385.72 48.65, 427.48 0.6 M319.23 125.13 C343.63 97.06, 368.04 68.99, 427.48 0.6 M329.86 125.1 C354.21 97.09, 378.55 69.09, 438.11 0.57 M329.86 125.1 C367.63 81.65, 405.4 38.21, 438.11 0.57 M340.49 125.06 C380.18 79.41, 419.87 33.75, 446.78 2.8 M340.49 125.06 C369.05 92.22, 397.6 59.37, 446.78 2.8 M351.12 125.03 C374.78 97.82, 398.43 70.61, 453.47 7.29 M351.12 125.03 C389.78 80.56, 428.43 36.1, 453.47 7.29 M361.75 124.99 C398.63 82.57, 435.5 40.16, 458.85 13.29 M361.75 124.99 C394.35 87.49, 426.95 49.99, 458.85 13.29 M372.38 124.96 C393.71 100.43, 415.03 75.9, 461.61 22.32 M372.38 124.96 C406.75 85.42, 441.13 45.88, 461.61 22.32 M383.01 124.92 C406.88 97.47, 430.74 70.02, 462.4 33.6 M383.01 124.92 C412.12 91.44, 441.22 57.97, 462.4 33.6 M392.99 125.64 C411.27 104.61, 429.55 83.58, 462.53 45.64 M392.99 125.64 C409.27 106.91, 425.56 88.17, 462.53 45.64 M403.62 125.61 C419.27 107.6, 434.92 89.6, 462.66 57.68 M403.62 125.61 C419.65 107.16, 435.69 88.72, 462.66 57.68 M414.25 125.57 C425.02 113.19, 435.78 100.8, 462.8 69.73 M414.25 125.57 C424.32 113.99, 434.39 102.4, 462.8 69.73 M424.88 125.54 C434.66 114.28, 444.45 103.03, 462.93 81.77 M424.88 125.54 C433.68 115.42, 442.48 105.3, 462.93 81.77 M435.51 125.5 C441.95 118.1, 448.39 110.69, 462.41 94.56 M435.51 125.5 C443.8 115.96, 452.1 106.42, 462.41 94.56 M450.08 120.94 C451.91 118.83, 453.75 116.72, 458.6 111.13 M450.08 120.94 C453.46 117.05, 456.84 113.16, 458.6 111.13" stroke="#a5d8ff" stroke-width="1" fill="none"></path><path d="M31.25 0 C138.73 0, 246.2 0, 430.84 0 M31.25 0 C177.36 0, 323.46 0, 430.84 0 M430.84 0 C451.67 0, 462.09 10.42, 462.09 31.25 M430.84 0 C451.67 0, 462.09 10.42, 462.09 31.25 M462.09 31.25 C462.09 52.42, 462.09 73.59, 462.09 93.75 M462.09 31.25 C462.09 49.22, 462.09 67.2, 462.09 93.75 M462.09 93.75 C462.09 114.58, 451.67 125, 430.84 125 M462.09 93.75 C462.09 114.58, 451.67 125, 430.84 125 M430.84 125 C281.98 125, 133.13 125, 31.25 125 M430.84 125 C319.87 125, 208.9 125, 31.25 125 M31.25 125 C10.42 125, 0 114.58, 0 93.75 M31.25 125 C10.42 125, 0 114.58, 0 93.75 M0 93.75 C0 74.97, 0 56.2, 0 31.25 M0 93.75 C0 73.13, 0 52.52, 0 31.25 M0 31.25 C0 10.42, 10.42 0, 31.25 0 M0 31.25 C0 10.42, 10.42 0, 31.25 0" stroke="#1971c2" stroke-width="2" fill="none"></path></g><g transform="translate(900.7944746320427 709.8267197553287) rotate(0 208.75 28.578716274743783)"><text x="208.75" y="0" font-family="Cascadia, Segoe UI Emoji" font-size="47.631193791239475px" fill="#1971c2" text-anchor="middle" style="white-space: pre;" direction="ltr" dominant-baseline="text-before-edge">Schema is HTTPS</text></g><g stroke-linecap="round"><g transform="translate(843.5926742676093 484.3889735410485) rotate(0 28.25737878873042 0.83109937613699)"><path d="M0 0 C9.42 0.28, 47.1 1.39, 56.51 1.66 M0 0 C9.42 0.28, 47.1 1.39, 56.51 1.66" stroke="#1e1e1e" stroke-width="2" fill="none"></path></g><g transform="translate(843.5926742676093 484.3889735410485) rotate(0 28.25737878873042 0.83109937613699)"><path d="M29.68 10.55 C39.32 7.35, 48.96 4.16, 56.51 1.66 M29.68 10.55 C38.88 7.5, 48.08 4.46, 56.51 1.66" stroke="#1e1e1e" stroke-width="2" fill="none"></path></g><g transform="translate(843.5926742676093 484.3889735410485) rotate(0 28.25737878873042 0.83109937613699)"><path d="M30.25 -8.78 C39.68 -5.03, 49.12 -1.28, 56.51 1.66 M30.25 -8.78 C39.25 -5.2, 48.26 -1.62, 56.51 1.66" stroke="#1e1e1e" stroke-width="2" fill="none"></path></g></g><mask></mask><g stroke-linecap="round"><g transform="translate(1075.835189880905 568.497557320683) rotate(0 101.01402622523165 46.315421368781244)"><path d="M0 0 C33.67 15.44, 168.36 77.19, 202.03 92.63 M0 0 C33.67 15.44, 168.36 77.19, 202.03 92.63" stroke="#1e1e1e" stroke-width="2" fill="none"></path></g><g transform="translate(1075.835189880905 568.497557320683) rotate(0 101.01402622523165 46.315421368781244)"><path d="M172.13 90.21 C179.18 90.78, 186.24 91.35, 202.03 92.63 M172.13 90.21 C178.64 90.74, 185.15 91.26, 202.03 92.63" stroke="#1e1e1e" stroke-width="2" fill="none"></path></g><g transform="translate(1075.835189880905 568.497557320683) rotate(0 101.01402622523165 46.315421368781244)"><path d="M180.68 71.55 C185.72 76.53, 190.75 81.5, 202.03 92.63 M180.68 71.55 C185.33 76.14, 189.98 80.73, 202.03 92.63" stroke="#1e1e1e" stroke-width="2" fill="none"></path></g></g><mask></mask><g stroke-linecap="round" transform="translate(1365.5230824829487 420.22677478875994) rotate(0 167.88207398008672 62.5)"><path d="M31.25 0 C127.51 0, 223.77 0, 304.51 0 M31.25 0 C133.12 0, 234.98 0, 304.51 0 M304.51 0 C325.35 0, 335.76 10.42, 335.76 31.25 M304.51 0 C325.35 0, 335.76 10.42, 335.76 31.25 M335.76 31.25 C335.76 53.94, 335.76 76.64, 335.76 93.75 M335.76 31.25 C335.76 50.99, 335.76 70.74, 335.76 93.75 M335.76 93.75 C335.76 114.58, 325.35 125, 304.51 125 M335.76 93.75 C335.76 114.58, 325.35 125, 304.51 125 M304.51 125 C211.26 125, 118.01 125, 31.25 125 M304.51 125 C201.15 125, 97.78 125, 31.25 125 M31.25 125 C10.42 125, 0 114.58, 0 93.75 M31.25 125 C10.42 125, 0 114.58, 0 93.75 M0 93.75 C0 79.31, 0 64.87, 0 31.25 M0 93.75 C0 72.44, 0 51.13, 0 31.25 M0 31.25 C0 10.42, 10.42 0, 31.25 0 M0 31.25 C0 10.42, 10.42 0, 31.25 0" stroke="#1e1e1e" stroke-width="2" fill="none"></path></g><g transform="translate(1463.8218205865705 425.5693422392724) rotate(0 69.58333587646484 57.15743254948757)"><text x="69.58333587646484" y="0" font-family="Cascadia, Segoe UI Emoji" font-size="47.631193791239475px" fill="#1e1e1e" text-anchor="middle" style="white-space: pre;" direction="ltr" dominant-baseline="text-before-edge">Start</text><text x="69.58333587646484" y="57.15743254948737" font-family="Cascadia, Segoe UI Emoji" font-size="47.631193791239475px" fill="#1e1e1e" text-anchor="middle" style="white-space: pre;" direction="ltr" dominant-baseline="text-before-edge">TLS</text></g><g mask="url(#mask-x37rGknLyx0XM8W2KBxYg)" stroke-linecap="round"><g transform="translate(1341.7195385578816 663.7721393469474) rotate(0 77.6540760331336 -50.30573893566543)"><path d="M0 0 C25.88 -16.77, 129.42 -83.84, 155.31 -100.61 M0 0 C25.88 -16.77, 129.42 -83.84, 155.31 -100.61" stroke="#1e1e1e" stroke-width="2" fill="none"></path></g><g transform="translate(1341.7195385578816 663.7721393469474) rotate(0 77.6540760331336 -50.30573893566543)"><path d="M137.23 -76.67 C143.71 -85.26, 150.2 -93.85, 155.31 -100.61 M137.23 -76.67 C143.86 -85.46, 150.5 -94.24, 155.31 -100.61" stroke="#1e1e1e" stroke-width="2" fill="none"></path></g><g transform="translate(1341.7195385578816 663.7721393469474) rotate(0 77.6540760331336 -50.30573893566543)"><path d="M126.07 -93.9 C136.56 -96.3, 147.04 -98.71, 155.31 -100.61 M126.07 -93.9 C136.8 -96.36, 147.53 -98.82, 155.31 -100.61" stroke="#1e1e1e" stroke-width="2" fill="none"></path></g></g><mask id="mask-x37rGknLyx0XM8W2KBxYg"><rect x="0" y="0" fill="#fff" width="1597.0276906241488" height="864.3836172182782"></rect><rect x="1405.323614400273" y="603.8664004112798" fill="#000" width="28.100000381469727" height="19.2" opacity="1"></rect></mask><g transform="translate(1405.323614400273 603.8664004112798) rotate(0 14.05000019074214 9.600000000002183)"><text x="14.050000190734863" y="0" font-family="Cascadia, Segoe UI Emoji" font-size="16px" fill="#1e1e1e" text-anchor="middle" style="white-space: pre;" direction="ltr" dominant-baseline="text-before-edge">Yes</text></g><g stroke-linecap="round" transform="translate(1613.190696572332 681.1919788964442) rotate(0 167.88207398008672 62.5)"><path d="M31.25 0 C131.88 0, 232.51 0, 304.51 0 M31.25 0 C140.31 0, 249.37 0, 304.51 0 M304.51 0 C325.35 0, 335.76 10.42, 335.76 31.25 M304.51 0 C325.35 0, 335.76 10.42, 335.76 31.25 M335.76 31.25 C335.76 55.23, 335.76 79.21, 335.76 93.75 M335.76 31.25 C335.76 51.36, 335.76 71.47, 335.76 93.75 M335.76 93.75 C335.76 114.58, 325.35 125, 304.51 125 M335.76 93.75 C335.76 114.58, 325.35 125, 304.51 125 M304.51 125 C222.09 125, 139.67 125, 31.25 125 M304.51 125 C246.13 125, 187.75 125, 31.25 125 M31.25 125 C10.42 125, 0 114.58, 0 93.75 M31.25 125 C10.42 125, 0 114.58, 0 93.75 M0 93.75 C0 79.25, 0 64.75, 0 31.25 M0 93.75 C0 79.12, 0 64.5, 0 31.25 M0 31.25 C0 10.42, 10.42 0, 31.25 0 M0 31.25 C0 10.42, 10.42 0, 31.25 0" stroke="#1e1e1e" stroke-width="2" fill="none"></path></g><g transform="translate(1725.4061026141862 686.5345463469566) rotate(0 55.66666793823242 57.15743254948757)"><text x="55.66666793823242" y="0" font-family="Cascadia, Segoe UI Emoji" font-size="47.631193791239475px" fill="#1e1e1e" text-anchor="middle" style="white-space: pre;" direction="ltr" dominant-baseline="text-before-edge">Send</text><text x="55.66666793823242" y="57.15743254948737" font-family="Cascadia, Segoe UI Emoji" font-size="47.631193791239475px" fill="#1e1e1e" text-anchor="middle" style="white-space: pre;" direction="ltr" dominant-baseline="text-before-edge">HTTP</text></g><g stroke-linecap="round"><g transform="translate(1581.9277302491246 570.9908554490248) rotate(0 91.52907271614822 46.374018274247646)"><path d="M0 0 C30.51 15.46, 152.55 77.29, 183.06 92.75 M0 0 C30.51 15.46, 152.55 77.29, 183.06 92.75" stroke="#1e1e1e" stroke-width="2" fill="none"></path></g><g transform="translate(1581.9277302491246 570.9908554490248) rotate(0 91.52907271614822 46.374018274247646)"><path d="M153.27 89.16 C161.58 90.16, 169.89 91.16, 183.06 92.75 M153.27 89.16 C161.91 90.2, 170.55 91.24, 183.06 92.75" stroke="#1e1e1e" stroke-width="2" fill="none"></path></g><g transform="translate(1581.9277302491246 570.9908554490248) rotate(0 91.52907271614822 46.374018274247646)"><path d="M162.55 70.85 C168.27 76.96, 173.99 83.06, 183.06 92.75 M162.55 70.85 C168.5 77.2, 174.45 83.56, 183.06 92.75" stroke="#1e1e1e" stroke-width="2" fill="none"></path></g></g><mask></mask><g mask="url(#mask-lHEh_BCWQJCoPp0-bIpn1)" stroke-linecap="round"><g transform="translate(1356.9266958588414 700.6001731779179) rotate(0 119.82100659536081 24.878147247833112)"><path d="M0 0 C39.94 8.29, 199.7 41.46, 239.64 49.76 M0 0 C39.94 8.29, 199.7 41.46, 239.64 49.76" stroke="#1e1e1e" stroke-width="2" fill="none"></path></g><g transform="translate(1356.9266958588414 700.6001731779179) rotate(0 119.82100659536081 24.878147247833112)"><path d="M209.95 54.07 C217.7 52.95, 225.44 51.82, 239.64 49.76 M209.95 54.07 C216.65 53.1, 223.34 52.13, 239.64 49.76" stroke="#1e1e1e" stroke-width="2" fill="none"></path></g><g transform="translate(1356.9266958588414 700.6001731779179) rotate(0 119.82100659536081 24.878147247833112)"><path d="M214.13 33.98 C220.78 38.09, 227.44 42.21, 239.64 49.76 M214.13 33.98 C219.88 37.54, 225.63 41.09, 239.64 49.76" stroke="#1e1e1e" stroke-width="2" fill="none"></path></g></g><mask id="mask-lHEh_BCWQJCoPp0-bIpn1"><rect x="0" y="0" fill="#fff" width="1696.568709049563" height="850.3564676735841"></rect><rect x="1467.381035660379" y="715.8783204257488" fill="#000" width="18.733333587646484" height="19.2" opacity="1"></rect></mask><g transform="translate(1467.381035660379 715.8783204257488) rotate(0 9.366666793823242 9.600000000002183)"><text x="9.366666793823242" y="0" font-family="Cascadia, Segoe UI Emoji" font-size="16px" fill="#1e1e1e" text-anchor="middle" style="white-space: pre;" direction="ltr" dominant-baseline="text-before-edge">No</text></g><g stroke-linecap="round" transform="translate(1629.8126840953191 923.8729967291292) rotate(0 167.88207398008672 62.5)"><path d="M31.25 0 C128.61 0, 225.98 0, 304.51 0 M31.25 0 C106.18 0, 181.12 0, 304.51 0 M304.51 0 C325.35 0, 335.76 10.42, 335.76 31.25 M304.51 0 C325.35 0, 335.76 10.42, 335.76 31.25 M335.76 31.25 C335.76 49.76, 335.76 68.27, 335.76 93.75 M335.76 31.25 C335.76 49.03, 335.76 66.8, 335.76 93.75 M335.76 93.75 C335.76 114.58, 325.35 125, 304.51 125 M335.76 93.75 C335.76 114.58, 325.35 125, 304.51 125 M304.51 125 C241.62 125, 178.72 125, 31.25 125 M304.51 125 C225.37 125, 146.22 125, 31.25 125 M31.25 125 C10.42 125, 0 114.58, 0 93.75 M31.25 125 C10.42 125, 0 114.58, 0 93.75 M0 93.75 C0 81.09, 0 68.42, 0 31.25 M0 93.75 C0 78.48, 0 63.22, 0 31.25 M0 31.25 C0 10.42, 10.42 0, 31.25 0 M0 31.25 C0 10.42, 10.42 0, 31.25 0" stroke="#1e1e1e" stroke-width="2" fill="none"></path></g><g transform="translate(1700.2780939518707 929.2155641796417) rotate(0 97.41666412353516 57.15743254948757)"><text x="97.41666412353516" y="0" font-family="Cascadia, Segoe UI Emoji" font-size="47.631193791239475px" fill="#1e1e1e" text-anchor="middle" style="white-space: pre;" direction="ltr" dominant-baseline="text-before-edge">Receive</text><text x="97.41666412353516" y="57.15743254948737" font-family="Cascadia, Segoe UI Emoji" font-size="47.631193791239475px" fill="#1e1e1e" text-anchor="middle" style="white-space: pre;" direction="ltr" dominant-baseline="text-before-edge">HTTP</text></g><g stroke-linecap="round"><g transform="translate(1784.3962175382476 828.1097021658861) rotate(0 1.7491717607190367 37.75388502308488)"><path d="M0 0 C0.58 12.58, 2.92 62.92, 3.5 75.51 M0 0 C0.58 12.58, 2.92 62.92, 3.5 75.51" stroke="#1e1e1e" stroke-width="2" fill="none"></path></g><g transform="translate(1784.3962175382476 828.1097021658861) rotate(0 1.7491717607190367 37.75388502308488)"><path d="M-8.06 47.82 C-3.54 58.64, 0.97 69.46, 3.5 75.51 M-8.06 47.82 C-4.78 55.67, -1.51 63.51, 3.5 75.51" stroke="#1e1e1e" stroke-width="2" fill="none"></path></g><g transform="translate(1784.3962175382476 828.1097021658861) rotate(0 1.7491717607190367 37.75388502308488)"><path d="M12.44 46.87 C8.95 58.06, 5.45 69.25, 3.5 75.51 M12.44 46.87 C9.91 54.99, 7.37 63.1, 3.5 75.51" stroke="#1e1e1e" stroke-width="2" fill="none"></path></g></g><mask></mask><g stroke-linecap="round" transform="translate(938.3380031476408 928.8595929860094) rotate(0 167.88207398008672 62.5)"><path d="M31.25 0 C103.97 0, 176.69 0, 304.51 0 M31.25 0 C87.76 0, 144.28 0, 304.51 0 M304.51 0 C325.35 0, 335.76 10.42, 335.76 31.25 M304.51 0 C325.35 0, 335.76 10.42, 335.76 31.25 M335.76 31.25 C335.76 47.57, 335.76 63.89, 335.76 93.75 M335.76 31.25 C335.76 45.43, 335.76 59.62, 335.76 93.75 M335.76 93.75 C335.76 114.58, 325.35 125, 304.51 125 M335.76 93.75 C335.76 114.58, 325.35 125, 304.51 125 M304.51 125 C219.34 125, 134.16 125, 31.25 125 M304.51 125 C235.66 125, 166.8 125, 31.25 125 M31.25 125 C10.42 125, 0 114.58, 0 93.75 M31.25 125 C10.42 125, 0 114.58, 0 93.75 M0 93.75 C0 69.36, 0 44.97, 0 31.25 M0 93.75 C0 79.26, 0 64.76, 0 31.25 M0 31.25 C0 10.42, 10.42 0, 31.25 0 M0 31.25 C0 10.42, 10.42 0, 31.25 0" stroke="#1e1e1e" stroke-width="2" fill="none"></path></g><g transform="translate(1036.6367412512627 934.2021604365218) rotate(0 69.58333587646484 57.15743254948757)"><text x="69.58333587646484" y="0" font-family="Cascadia, Segoe UI Emoji" font-size="47.631193791239475px" fill="#1e1e1e" text-anchor="middle" style="white-space: pre;" direction="ltr" dominant-baseline="text-before-edge">Parse</text><text x="69.58333587646484" y="57.15743254948737" font-family="Cascadia, Segoe UI Emoji" font-size="47.631193791239475px" fill="#1e1e1e" text-anchor="middle" style="white-space: pre;" direction="ltr" dominant-baseline="text-before-edge">HTTP</text></g><g stroke-linecap="round"><g transform="translate(1614.0217959487054 982.2914702166381) rotate(0 -157.07778209029493 0.06504015644168248)"><path d="M0 0 C-52.36 0.02, -261.8 0.11, -314.16 0.13 M0 0 C-52.36 0.02, -261.8 0.11, -314.16 0.13" stroke="#1e1e1e" stroke-width="2" fill="none"></path></g><g transform="translate(1614.0217959487054 982.2914702166381) rotate(0 -157.07778209029493 0.06504015644168248)"><path d="M-285.97 -10.14 C-295.64 -6.62, -305.3 -3.1, -314.16 0.13 M-285.97 -10.14 C-295.61 -6.63, -305.25 -3.12, -314.16 0.13" stroke="#1e1e1e" stroke-width="2" fill="none"></path></g><g transform="translate(1614.0217959487054 982.2914702166381) rotate(0 -157.07778209029493 0.06504015644168248)"><path d="M-285.96 10.38 C-295.63 6.86, -305.3 3.35, -314.16 0.13 M-285.96 10.38 C-295.6 6.87, -305.25 3.37, -314.16 0.13" stroke="#1e1e1e" stroke-width="2" fill="none"></path></g></g><mask></mask><g stroke-linecap="round" transform="translate(499.5175325461314 931.0700501341635) rotate(0 167.88207398008672 62.5)"><path d="M31.25 0 C86.26 0, 141.28 0, 304.51 0 M31.25 0 C120.26 0, 209.27 0, 304.51 0 M304.51 0 C325.35 0, 335.76 10.42, 335.76 31.25 M304.51 0 C325.35 0, 335.76 10.42, 335.76 31.25 M335.76 31.25 C335.76 45, 335.76 58.75, 335.76 93.75 M335.76 31.25 C335.76 52.42, 335.76 73.58, 335.76 93.75 M335.76 93.75 C335.76 114.58, 325.35 125, 304.51 125 M335.76 93.75 C335.76 114.58, 325.35 125, 304.51 125 M304.51 125 C210.08 125, 115.65 125, 31.25 125 M304.51 125 C201.6 125, 98.68 125, 31.25 125 M31.25 125 C10.42 125, 0 114.58, 0 93.75 M31.25 125 C10.42 125, 0 114.58, 0 93.75 M0 93.75 C0 75.34, 0 56.93, 0 31.25 M0 93.75 C0 77.16, 0 60.56, 0 31.25 M0 31.25 C0 10.42, 10.42 0, 31.25 0 M0 31.25 C0 10.42, 10.42 0, 31.25 0" stroke="#1e1e1e" stroke-width="2" fill="none"></path></g><g transform="translate(611.7329385879857 936.4126175846759) rotate(0 55.66666793823242 57.15743254948757)"><text x="55.66666793823242" y="0" font-family="Cascadia, Segoe UI Emoji" font-size="47.631193791239475px" fill="#1e1e1e" text-anchor="middle" style="white-space: pre;" direction="ltr" dominant-baseline="text-before-edge">Drop</text><text x="55.66666793823242" y="57.15743254948737" font-family="Cascadia, Segoe UI Emoji" font-size="47.631193791239475px" fill="#1e1e1e" text-anchor="middle" style="white-space: pre;" direction="ltr" dominant-baseline="text-before-edge">TLS</text></g><g stroke-linecap="round"><g transform="translate(1087.93589085259 910.7429535006158) rotate(0 -66.23550303303637 -45.06211911010905)"><path d="M0 0 C-22.08 -15.02, -110.39 -75.1, -132.47 -90.12 M0 0 C-22.08 -15.02, -110.39 -75.1, -132.47 -90.12" stroke="#1e1e1e" stroke-width="2" fill="none"></path></g><g transform="translate(1087.93589085259 910.7429535006158) rotate(0 -66.23550303303637 -45.06211911010905)"><path d="M-103.39 -82.75 C-114.82 -85.65, -126.26 -88.55, -132.47 -90.12 M-103.39 -82.75 C-114.42 -85.55, -125.45 -88.34, -132.47 -90.12" stroke="#1e1e1e" stroke-width="2" fill="none"></path></g><g transform="translate(1087.93589085259 910.7429535006158) rotate(0 -66.23550303303637 -45.06211911010905)"><path d="M-114.93 -65.78 C-121.83 -75.35, -128.72 -84.92, -132.47 -90.12 M-114.93 -65.78 C-121.58 -75.01, -128.23 -84.24, -132.47 -90.12" stroke="#1e1e1e" stroke-width="2" fill="none"></path></g></g><mask></mask><g mask="url(#mask-Emd_xDIQpR7yk-TOxeSCB)" stroke-linecap="round"><g transform="translate(901.2240129975107 814.7947757025031) rotate(0 -98.15542668617854 47.57284080340105)"><path d="M0 0 C-32.72 15.86, -163.59 79.29, -196.31 95.15 M0 0 C-32.72 15.86, -163.59 79.29, -196.31 95.15" stroke="#1e1e1e" stroke-width="2" fill="none"></path></g><g transform="translate(901.2240129975107 814.7947757025031) rotate(0 -98.15542668617854 47.57284080340105)"><path d="M-175.42 73.62 C-181.99 80.39, -188.57 87.17, -196.31 95.15 M-175.42 73.62 C-181.26 79.64, -187.11 85.66, -196.31 95.15" stroke="#1e1e1e" stroke-width="2" fill="none"></path></g><g transform="translate(901.2240129975107 814.7947757025031) rotate(0 -98.15542668617854 47.57284080340105)"><path d="M-166.47 92.08 C-175.86 93.05, -185.25 94.01, -196.31 95.15 M-166.47 92.08 C-174.82 92.94, -183.16 93.8, -196.31 95.15" stroke="#1e1e1e" stroke-width="2" fill="none"></path></g></g><mask id="mask-Emd_xDIQpR7yk-TOxeSCB"><rect x="0" y="0" fill="#fff" width="1197.5348663698678" height="1009.9404573093052"></rect><rect x="789.0185861205973" y="852.7676165059092" fill="#000" width="28.100000381469727" height="19.2" opacity="1"></rect></mask><g transform="translate(789.0185861205973 852.7676165059092) rotate(0 14.050000190734863 9.599999999994907)"><text x="14.050000190734863" y="0" font-family="Cascadia, Segoe UI Emoji" font-size="16px" fill="#1e1e1e" text-anchor="middle" style="white-space: pre;" direction="ltr" dominant-baseline="text-before-edge">Yes</text></g><g stroke-linecap="round" transform="translate(414.07629714875657 674.4109110461723) rotate(0 167.88207398008672 62.5)"><path d="M31.25 0 C132.99 0, 234.73 0, 304.51 0 M31.25 0 C126.84 0, 222.42 0, 304.51 0 M304.51 0 C325.35 0, 335.76 10.42, 335.76 31.25 M304.51 0 C325.35 0, 335.76 10.42, 335.76 31.25 M335.76 31.25 C335.76 47.24, 335.76 63.23, 335.76 93.75 M335.76 31.25 C335.76 52.38, 335.76 73.51, 335.76 93.75 M335.76 93.75 C335.76 114.58, 325.35 125, 304.51 125 M335.76 93.75 C335.76 114.58, 325.35 125, 304.51 125 M304.51 125 C209.54 125, 114.56 125, 31.25 125 M304.51 125 C249.69 125, 194.87 125, 31.25 125 M31.25 125 C10.42 125, 0 114.58, 0 93.75 M31.25 125 C10.42 125, 0 114.58, 0 93.75 M0 93.75 C0 71.36, 0 48.97, 0 31.25 M0 93.75 C0 71.07, 0 48.38, 0 31.25 M0 31.25 C0 10.42, 10.42 0, 31.25 0 M0 31.25 C0 10.42, 10.42 0, 31.25 0" stroke="#1e1e1e" stroke-width="2" fill="none"></path></g><g transform="translate(526.2917031906109 679.7534784966847) rotate(0 55.66666793823242 57.15743254948757)"><text x="55.66666793823242" y="0" font-family="Cascadia, Segoe UI Emoji" font-size="47.631193791239475px" fill="#1e1e1e" text-anchor="middle" style="white-space: pre;" direction="ltr" dominant-baseline="text-before-edge">Drop</text><text x="55.66666793823242" y="57.15743254948737" font-family="Cascadia, Segoe UI Emoji" font-size="47.631193791239475px" fill="#1e1e1e" text-anchor="middle" style="white-space: pre;" direction="ltr" dominant-baseline="text-before-edge">TCP</text></g><g mask="url(#mask-WG5Ph_kwlXY7vSunWAR2S)" stroke-linecap="round"><g transform="translate(860.3633025129384 778.2831270545139) rotate(0 -45.01856019793195 -18.310321622368065)"><path d="M0 0 C-15.01 -6.1, -75.03 -30.52, -90.04 -36.62 M0 0 C-15.01 -6.1, -75.03 -30.52, -90.04 -36.62" stroke="#1e1e1e" stroke-width="2" fill="none"></path></g><g transform="translate(860.3633025129384 778.2831270545139) rotate(0 -45.01856019793195 -18.310321622368065)"><path d="M-60.06 -35.5 C-70.07 -35.88, -80.08 -36.25, -90.04 -36.62 M-60.06 -35.5 C-71.85 -35.94, -83.65 -36.38, -90.04 -36.62" stroke="#1e1e1e" stroke-width="2" fill="none"></path></g><g transform="translate(860.3633025129384 778.2831270545139) rotate(0 -45.01856019793195 -18.310321622368065)"><path d="M-67.79 -16.5 C-75.22 -23.21, -82.65 -29.93, -90.04 -36.62 M-67.79 -16.5 C-76.54 -24.41, -85.3 -32.33, -90.04 -36.62" stroke="#1e1e1e" stroke-width="2" fill="none"></path></g></g><mask id="mask-WG5Ph_kwlXY7vSunWAR2S"><rect x="0" y="0" fill="#fff" width="1050.4004229088023" height="914.90377029925"></rect><rect x="805.9780755211832" y="750.3728054321473" fill="#000" width="18.733333587646484" height="19.2" opacity="1"></rect></mask><g transform="translate(805.9780755211832 750.3728054321473) rotate(0 9.366666793823242 9.599999999998545)"><text x="9.366666793823242" y="0" font-family="Cascadia, Segoe UI Emoji" font-size="16px" fill="#1e1e1e" text-anchor="middle" style="white-space: pre;" direction="ltr" dominant-baseline="text-before-edge">No</text></g><g stroke-linecap="round"><g transform="translate(580.8977684102865 811.2626910659892) rotate(0 -144.26822833434562 82.67827435389336)"><path d="M0 0 C-48.09 27.56, -240.45 137.8, -288.54 165.36 M0 0 C-48.09 27.56, -240.45 137.8, -288.54 165.36" stroke="#1e1e1e" stroke-width="2" fill="none"></path></g><g transform="translate(580.8977684102865 811.2626910659892) rotate(0 -144.26822833434562 82.67827435389336)"><path d="M-269.18 142.44 C-274.9 149.21, -280.63 155.99, -288.54 165.36 M-269.18 142.44 C-275.96 150.47, -282.75 158.5, -288.54 165.36" stroke="#1e1e1e" stroke-width="2" fill="none"></path></g><g transform="translate(580.8977684102865 811.2626910659892) rotate(0 -144.26822833434562 82.67827435389336)"><path d="M-258.98 160.24 C-267.72 161.75, -276.46 163.27, -288.54 165.36 M-258.98 160.24 C-269.34 162.03, -279.7 163.83, -288.54 165.36" stroke="#1e1e1e" stroke-width="2" fill="none"></path></g></g><mask></mask><g stroke-linecap="round"><g transform="translate(487.12339023529785 995.4397493160723) rotate(0 -86.01566645857383 5.0540794247426675)"><path d="M0 0 C-28.67 1.68, -143.36 8.42, -172.03 10.11 M0 0 C-28.67 1.68, -143.36 8.42, -172.03 10.11" stroke="#1e1e1e" stroke-width="2" fill="none"></path></g><g transform="translate(487.12339023529785 995.4397493160723) rotate(0 -86.01566645857383 5.0540794247426675)"><path d="M-144.49 -1.79 C-151.74 1.34, -159 4.48, -172.03 10.11 M-144.49 -1.79 C-150.51 0.81, -156.52 3.41, -172.03 10.11" stroke="#1e1e1e" stroke-width="2" fill="none"></path></g><g transform="translate(487.12339023529785 995.4397493160723) rotate(0 -86.01566645857383 5.0540794247426675)"><path d="M-143.29 18.7 C-150.86 16.44, -158.43 14.17, -172.03 10.11 M-143.29 18.7 C-149.56 16.82, -155.84 14.95, -172.03 10.11" stroke="#1e1e1e" stroke-width="2" fill="none"></path></g></g><mask></mask><g stroke-linecap="round" transform="translate(54.302227577369194 10) rotate(0 112.54204460359324 108.83877228770871)"><path d="M141.25 27.25 C152.73 38.51, 164.22 49.77, 196.83 81.75 M141.25 27.25 C157.16 42.85, 173.07 58.45, 196.83 81.75 M196.83 81.75 C225.08 109, 225.08 109, 196.83 136.25 M196.83 81.75 C225.08 109, 225.08 109, 196.83 136.25 M196.83 136.25 C180.31 152.36, 163.78 168.46, 141.25 190.43 M196.83 136.25 C183.13 149.61, 169.42 162.97, 141.25 190.43 M141.25 190.43 C113 217.68, 113 217.68, 84.75 190.43 M141.25 190.43 C113 217.68, 113 217.68, 84.75 190.43 M84.75 190.43 C67.64 174.02, 50.54 157.62, 28.25 136.25 M84.75 190.43 C64.92 171.41, 45.08 152.39, 28.25 136.25 M28.25 136.25 C0 109, 0 109, 28.25 81.75 M28.25 136.25 C0 109, 0 109, 28.25 81.75 M28.25 81.75 C42.07 68.42, 55.89 55.08, 84.75 27.25 M28.25 81.75 C43.27 67.26, 58.29 52.78, 84.75 27.25 M84.75 27.25 C113 0, 113 0, 141.25 27.25 M84.75 27.25 C113 0, 113 0, 141.25 27.25" stroke="#1e1e1e" stroke-width="2" fill="none"></path></g><g transform="translate(132.37324911622272 95.27494169941201) rotate(0 34.70000076293945 23.64444444444598)"><text x="34.70000076293945" y="0" font-family="Cascadia, Segoe UI Emoji" font-size="39.4074074074074px" fill="#1e1e1e" text-anchor="middle" style="white-space: pre;" direction="ltr" dominant-baseline="text-before-edge">URL</text></g><g stroke-linecap="round" transform="translate(32.16280896682292 939.8555816428197) rotate(0 147.59612407029636 137.6458235711725)"><path d="M295.19 137.65 C295.19 141.25, 295.04 144.86, 294.74 148.45 C294.43 152.03, 293.98 155.62, 293.38 159.18 C292.77 162.73, 292.02 166.28, 291.11 169.78 C290.21 173.28, 289.16 176.76, 287.97 180.18 C286.78 183.6, 285.43 186.99, 283.96 190.32 C282.48 193.65, 280.86 196.93, 279.11 200.14 C277.35 203.34, 275.46 206.5, 273.44 209.57 C271.43 212.63, 269.27 215.64, 267 218.55 C264.73 221.46, 262.34 224.3, 259.83 227.04 C257.32 229.78, 254.69 232.43, 251.96 234.98 C249.23 237.52, 246.39 239.97, 243.45 242.31 C240.52 244.65, 237.47 246.89, 234.35 249 C231.23 251.12, 228.01 253.13, 224.71 255.01 C221.42 256.89, 218.04 258.65, 214.6 260.29 C211.16 261.92, 207.64 263.44, 204.08 264.81 C200.51 266.19, 196.88 267.44, 193.21 268.55 C189.53 269.67, 185.81 270.65, 182.05 271.49 C178.3 272.33, 174.5 273.03, 170.69 273.6 C166.87 274.16, 163.02 274.58, 159.18 274.87 C155.33 275.15, 151.46 275.29, 147.6 275.29 C143.74 275.29, 139.86 275.15, 136.02 274.87 C132.17 274.58, 128.32 274.16, 124.51 273.6 C120.69 273.03, 116.89 272.33, 113.14 271.49 C109.39 270.65, 105.66 269.67, 101.99 268.55 C98.32 267.44, 94.68 266.19, 91.11 264.81 C87.55 263.44, 84.03 261.92, 80.59 260.29 C77.15 258.65, 73.77 256.89, 70.48 255.01 C67.19 253.13, 63.96 251.12, 60.84 249 C57.72 246.89, 54.68 244.65, 51.74 242.31 C48.8 239.97, 45.96 237.52, 43.23 234.98 C40.5 232.43, 37.87 229.78, 35.36 227.04 C32.86 224.3, 30.46 221.46, 28.19 218.55 C25.92 215.64, 23.77 212.63, 21.75 209.57 C19.73 206.5, 17.84 203.34, 16.09 200.14 C14.33 196.93, 12.71 193.65, 11.24 190.32 C9.76 186.99, 8.42 183.6, 7.22 180.18 C6.03 176.76, 4.98 173.28, 4.08 169.78 C3.18 166.28, 2.42 162.73, 1.82 159.18 C1.21 155.62, 0.76 152.03, 0.45 148.45 C0.15 144.86, 0 141.25, 0 137.65 C0 134.05, 0.15 130.44, 0.45 126.85 C0.76 123.26, 1.21 119.67, 1.82 116.11 C2.42 112.56, 3.18 109.01, 4.08 105.51 C4.98 102.01, 6.03 98.53, 7.22 95.11 C8.42 91.69, 9.76 88.3, 11.24 84.97 C12.71 81.65, 14.33 78.36, 16.09 75.16 C17.84 71.95, 19.73 68.8, 21.75 65.73 C23.77 62.66, 25.92 59.65, 28.19 56.74 C30.46 53.83, 32.86 50.99, 35.36 48.25 C37.87 45.51, 40.5 42.86, 43.23 40.32 C45.96 37.77, 48.8 35.32, 51.74 32.98 C54.68 30.64, 57.72 28.4, 60.84 26.29 C63.96 24.17, 67.19 22.16, 70.48 20.28 C73.77 18.4, 77.15 16.64, 80.59 15 C84.03 13.37, 87.55 11.86, 91.11 10.48 C94.68 9.1, 98.32 7.85, 101.99 6.74 C105.66 5.62, 109.39 4.64, 113.14 3.8 C116.89 2.96, 120.69 2.26, 124.51 1.69 C128.32 1.13, 132.17 0.71, 136.02 0.42 C139.86 0.14, 143.74 0, 147.6 0 C151.46 0, 155.33 0.14, 159.18 0.42 C163.02 0.71, 166.87 1.13, 170.69 1.69 C174.5 2.26, 178.3 2.96, 182.05 3.8 C185.81 4.64, 189.53 5.62, 193.21 6.74 C196.88 7.85, 200.51 9.1, 204.08 10.48 C207.64 11.86, 211.16 13.37, 214.6 15 C218.04 16.64, 221.42 18.4, 224.71 20.28 C228.01 22.16, 231.23 24.17, 234.35 26.29 C237.47 28.4, 240.52 30.64, 243.45 32.98 C246.39 35.32, 249.23 37.77, 251.96 40.32 C254.69 42.86, 257.32 45.51, 259.83 48.25 C262.34 50.99, 264.73 53.83, 267 56.74 C269.27 59.65, 271.43 62.66, 273.44 65.73 C275.46 68.8, 277.35 71.95, 279.11 75.16 C280.86 78.36, 282.48 81.65, 283.96 84.97 C285.43 88.3, 286.78 91.69, 287.97 95.11 C289.16 98.53, 290.21 102.01, 291.11 105.51 C292.02 109.01, 292.77 112.56, 293.38 116.11 C293.98 119.67, 294.43 123.26, 294.74 126.85 C295.04 130.44, 295.19 134.05, 295.19 137.65" stroke="#1e1e1e" stroke-width="2" fill="none"></path></g><g transform="translate(127.19271206721896 1059.6484684553725) rotate(0 52.70000076293945 18.022641509433015)"><text x="52.70000076293945" y="0" font-family="Cascadia, Segoe UI Emoji" font-size="30.037735849056585px" fill="#1e1e1e" text-anchor="middle" style="white-space: pre;" direction="ltr" dominant-baseline="text-before-edge">Result</text></g><g transform="translate(508.4443253687932 187.11534888432652) rotate(0 400.1666564941406 23.437136631589965)"><text x="400.1666564941406" y="0" font-family="Cascadia, Segoe UI Emoji" font-size="39.06189438598514px" fill="#f08c00" text-anchor="middle" style="white-space: pre;" direction="ltr" dominant-baseline="text-before-edge">rucl https://github.com/pcs289/rucl</text></g></svg>